<svg xmlns="http://www.w3.org/2000/svg" viewBox="0 0 1440 320">
  <path fill="#0fb9b1" fill-opacity="1" d="M0,160L6.2,176C12.3,192,25,224,37,224C49.2,224,62,192,74,176C86.2,160,98,160,111,144C123.1,128,135,96,148,117.3C160,139,172,213,185,213.3C196.9,213,209,139,222,144C233.8,149,246,235,258,250.7C270.8,267,283,213,295,181.3C307.7,149,320,139,332,149.3C344.6,160,357,192,369,192C381.5,192,394,160,406,170.7C418.5,181,431,235,443,229.3C455.4,224,468,160,480,149.3C492.3,139,505,181,517,170.7C529.2,160,542,96,554,64C566.2,32,578,32,591,69.3C603.1,107,615,181,628,218.7C640,256,652,256,665,256C676.9,256,689,256,702,250.7C713.8,245,726,235,738,202.7C750.8,171,763,117,775,101.3C787.7,85,800,107,812,133.3C824.6,160,837,192,849,186.7C861.5,181,874,139,886,117.3C898.5,96,911,96,923,90.7C935.4,85,948,75,960,64C972.3,53,985,43,997,74.7C1009.2,107,1022,181,1034,192C1046.2,203,1058,149,1071,106.7C1083.1,64,1095,32,1108,32C1120,32,1132,64,1145,106.7C1156.9,149,1169,203,1182,218.7C1193.8,235,1206,213,1218,208C1230.8,203,1243,213,1255,192C1267.7,171,1280,117,1292,80C1304.6,43,1317,21,1329,53.3C1341.5,85,1354,171,1366,181.3C1378.5,192,1391,128,1403,122.7C1415.4,117,1428,171,1434,197.3L1440,224L1440,0L1433.8,0C1427.7,0,1415,0,1403,0C1390.8,0,1378,0,1366,0C1353.8,0,1342,0,1329,0C1316.9,0,1305,0,1292,0C1280,0,1268,0,1255,0C1243.1,0,1231,0,1218,0C1206.2,0,1194,0,1182,0C1169.2,0,1157,0,1145,0C1132.3,0,1120,0,1108,0C1095.4,0,1083,0,1071,0C1058.5,0,1046,0,1034,0C1021.5,0,1009,0,997,0C984.6,0,972,0,960,0C947.7,0,935,0,923,0C910.8,0,898,0,886,0C873.8,0,862,0,849,0C836.9,0,825,0,812,0C800,0,788,0,775,0C763.1,0,751,0,738,0C726.2,0,714,0,702,0C689.2,0,677,0,665,0C652.3,0,640,0,628,0C615.4,0,603,0,591,0C578.5,0,566,0,554,0C541.5,0,529,0,517,0C504.6,0,492,0,480,0C467.7,0,455,0,443,0C430.8,0,418,0,406,0C393.8,0,382,0,369,0C356.9,0,345,0,332,0C320,0,308,0,295,0C283.1,0,271,0,258,0C246.2,0,234,0,222,0C209.2,0,197,0,185,0C172.3,0,160,0,148,0C135.4,0,123,0,111,0C98.5,0,86,0,74,0C61.5,0,49,0,37,0C24.6,0,12,0,6,0L0,0Z"></path>
</svg>