<svg xmlns="http://www.w3.org/2000/svg" viewBox="0 0 1440 320">
  <path fill="#0fb9b1" fill-opacity="1" d="M0,160L6.2,176C12.3,192,25,224,37,224C49.2,224,62,192,74,176C86.2,160,98,160,111,144C123.1,128,135,96,148,117.3C160,139,172,213,185,213.3C196.9,213,209,139,222,144C233.8,149,246,235,258,250.7C270.8,267,283,213,295,181.3C307.7,149,320,139,332,149.3C344.6,160,357,192,369,192C381.5,192,394,160,406,170.7C418.5,181,431,235,443,229.3C455.4,224,468,160,480,149.3C492.3,139,505,181,517,170.7C529.2,160,542,96,554,64C566.2,32,578,32,591,69.3C603.1,107,615,181,628,218.7C640,256,652,256,665,256C676.9,256,689,256,702,250.7C713.8,245,726,235,738,202.7C750.8,171,763,117,775,101.3C787.7,85,800,107,812,133.3C824.6,160,837,192,849,186.7C861.5,181,874,139,886,117.3C898.5,96,911,96,923,90.7C935.4,85,948,75,960,64C972.3,53,985,43,997,74.7C1009.2,107,1022,181,1034,192C1046.2,203,1058,149,1071,106.7C1083.1,64,1095,32,1108,32C1120,32,1132,64,1145,106.7C1156.9,149,1169,203,1182,218.7C1193.8,235,1206,213,1218,208C1230.8,203,1243,213,1255,192C1267.7,171,1280,117,1292,80C1304.6,43,1317,21,1329,53.3C1341.5,85,1354,171,1366,181.3C1378.5,192,1391,128,1403,122.7C1415.4,117,1428,171,1434,197.3L1440,224L1440,320L1433.8,320C1427.7,320,1415,320,1403,320C1390.8,320,1378,320,1366,320C1353.8,320,1342,320,1329,320C1316.9,320,1305,320,1292,320C1280,320,1268,320,1255,320C1243.1,320,1231,320,1218,320C1206.2,320,1194,320,1182,320C1169.2,320,1157,320,1145,320C1132.3,320,1120,320,1108,320C1095.4,320,1083,320,1071,320C1058.5,320,1046,320,1034,320C1021.5,320,1009,320,997,320C984.6,320,972,320,960,320C947.7,320,935,320,923,320C910.8,320,898,320,886,320C873.8,320,862,320,849,320C836.9,320,825,320,812,320C800,320,788,320,775,320C763.1,320,751,320,738,320C726.2,320,714,320,702,320C689.2,320,677,320,665,320C652.3,320,640,320,628,320C615.4,320,603,320,591,320C578.5,320,566,320,554,320C541.5,320,529,320,517,320C504.6,320,492,320,480,320C467.7,320,455,320,443,320C430.8,320,418,320,406,320C393.8,320,382,320,369,320C356.9,320,345,320,332,320C320,320,308,320,295,320C283.1,320,271,320,258,320C246.2,320,234,320,222,320C209.2,320,197,320,185,320C172.3,320,160,320,148,320C135.4,320,123,320,111,320C98.5,320,86,320,74,320C61.5,320,49,320,37,320C24.6,320,12,320,6,320L0,320Z"></path>
</svg>